<?xml version="1.0" encoding="utf-8"?>
<!-- Generator: Adobe Illustrator 24.0.3, SVG Export Plug-In . SVG Version: 6.00 Build 0)  -->
<svg version="1.1" id="Capa_1" xmlns="http://www.w3.org/2000/svg" xmlns:xlink="http://www.w3.org/1999/xlink" x="0px" y="0px"
	 viewBox="0 0 841.89 595.28" style="enable-background:new 0 0 841.89 595.28;" xml:space="preserve">
<style type="text/css">
	.st0{fill:#1CB961;}
	.st1{fill:#848484;}
	.st2{fill:#FFFFFF;}
</style>
<rect x="-1" y="0.72" class="st0" width="843" height="595"/>
<g>
	<path class="st2" d="M284.86,347.86c-4.82,1.35-8.75,0.79-11.01-1.5c-1.82-1.85-3.75-20.36-5.36-40.65c0-0.08-0.01-0.18-0.03-0.26
		c-0.15-1.57-0.28-3.3-0.39-5.2c-0.01-0.09-0.01-0.17-0.02-0.25c-0.05-0.8-0.08-1.63-0.12-2.5c-0.2-4.34-0.49-8.38-0.91-12.08
		c-4.14-37.63-25.26-45.33-57.33-2.28c-0.05,0.07-0.1,0.15-0.14,0.22c-2.22,4.28-5.58,3.31-5.57-1.6
		c-6.37-63.42-37.23-12.68-53.79,6.57c-1.04,1.2-3.01,0.48-3.01-1.11c0.07-20.51-19.69-38.73-30.18-15.61
		c-31.25,68.82,18.73,127.12,52.08,34.1c0.64-1.77,3.8-3.33,3.75-1.44c-2.53,80.57,24.24,46.18,52.25-6.68
		c0.72-1.36,2.72-1.15,3.15,0.33c30.19,103.68,26.51,110.55,58.6,52.41C287.59,348.99,286.34,347.44,284.86,347.86z"/>
	<path class="st2" d="M742.36,310.96l0-0.03c-1.24-10.93-5.2-19.42-11.78-25.23c-5.81-5.13-13.39-7.85-21.92-7.85
		c-13.79,0-27.61,6.92-36.05,18.05c-2.51,3.31-4.43,6.89-5.78,10.65c1.08-8.56-0.93-15.85-6.14-22.21c-0.15-0.19-0.33-0.35-0.52-0.5
		c-6.41-4.99-11.14-7.42-14.46-7.42c-3.22,0-5.32,2.09-6.4,6.38c-0.9,3.57-1.1,8.36-1.32,13.92c-0.44,10.81-0.99,24.26-7.37,33.79
		c-5.72,8.44-8.49,10.31-9.63,10.67c-0.11,0.03-0.22,0.05-0.33,0.05c-0.37,0-0.72-0.19-0.92-0.51c-0.8-1.27-1.45-5.03,0.03-15.66
		c1.1-7.95,2.99-16.77,4.24-22.61l0.02-0.11c0.28-1.3,0.52-2.43,0.71-3.36c0.02-0.12,0.04-0.24,0.05-0.36
		c0.37-4.08-1.06-7.94-4.24-11.46c-4.2-4.64-10.76-7.63-16.72-7.63c-0.52,0-1.04,0.02-1.54,0.07c-1.09,0.1-2.06,0.75-2.57,1.71
		c-4.51,8.53-6.51,23.18-7.29,31.14c-0.66,6.67-0.96,13.45-0.92,19.1c-5.54,3.65-13.12,8.6-14.21,9.18
		c-0.52,0.28-1.08,0.43-1.57,0.43c-1.63,0-2.28-1.38-2.36-2.67c-0.05-0.82-0.08-1.76,0.05-2.59c0.19-1.23,0.38-2.45,0.57-3.69
		c0.56-3.69,1.14-7.51,1.94-11.22c0.31-1.43,0.63-2.86,0.95-4.29l0.02-0.1c1.35-6.04,2.75-12.29,3.21-18.62
		c0.09-1.28,0.15-4.53-1.39-6.93c-4.06-6.35-9.86-10.11-17.75-11.5c-0.99-0.17-1.84-0.26-2.58-0.26c-2.46,0-5.1,0.77-6.03,6.49
		c-0.52,3.17-1.01,6.4-1.48,9.52l-0.02,0.13c-0.35,2.3-0.7,4.6-1.06,6.9c-0.93,5.9-1.89,11.84-2.8,17.39
		c-0.05,0.32-0.14,0.65-0.24,1.01c-0.08,0.31-0.18,0.66-0.25,1.02c-0.09,0.45-0.18,0.9-0.27,1.35l-0.02,0.08
		c-0.29,1.42-0.58,2.88-0.76,4.36c-0.21,1.84-0.36,3.7-0.5,5.5l0,0.05c-0.09,1.13-0.18,2.29-0.29,3.44
		c-0.55,5.86,1.65,11.02,6.55,15.34c2.45,2.16,5.37,3.8,9.48,5.32c2.59,0.96,5.23,1.44,7.85,1.44c3.84,0,7.73-1.04,11.56-3.09
		c1.56-0.84,7.86-5.18,13.35-9.06c3.06,8.85,9.88,13.98,19.05,13.98h0c5.92,0,12.41-2.13,18.75-6.15l0.05-0.03
		c7.46-4.16,15.38-11,21.71-18.76c5.49-6.72,9.49-13.69,11.8-20.45c-0.63,5.37-0.18,10.97,1.4,16.59l0.01,0.05
		c2.36,8.87,6.7,15.72,12.91,20.37c5.53,4.14,12.42,6.33,19.92,6.33h0.01c12.39,0,25.33-6.02,33.77-15.71
		C740.58,333.81,743.97,322.53,742.36,310.96z M712.84,325.94c-24.78,60.44-29.74-40.02-0.67-33.89
		C718.81,301.55,715.65,315.5,712.84,325.94z"/>
	<path class="st2" d="M423.71,308.81c-0.61-0.61-1.44-0.95-2.3-0.95h0c-0.87,0-1.69,0.35-2.3,0.96
		c-7.12,7.18-12.17,10.82-15.01,10.82c-0.68,0-1.18-0.22-1.59-0.71c-2.55-3.05-0.93-13.61,1.64-28.2l0.09-0.52
		c0-0.04,0.01-0.07,0.02-0.09c3.27-12.12,5.49-21.77,1.83-26.54c-0.89-1.16-2.6-2.54-5.73-2.54c-2.75,0-6.16,0.99-10.43,3.03
		c-0.15,0.07-0.3,0.1-0.47,0.1c-0.22,0-0.43-0.06-0.6-0.18c-7.24-4.86-14.76-7.33-22.35-7.33c-9.91,0-19.81,4.38-27.87,12.33
		c-7.42,7.31-12.89,17.29-15,27.38c-1.27,6.05-1.31,11.9-0.16,17.23c-4.58,2.74-9.81,5.71-10.82,6.24
		c-0.52,0.28-1.08,0.43-1.57,0.43c-1.63,0-2.28-1.38-2.36-2.67c-0.05-0.82-0.08-1.76,0.05-2.59c0.19-1.23,0.38-2.45,0.57-3.69
		c0.56-3.69,1.14-7.51,1.94-11.22c0.31-1.43,0.63-2.86,0.95-4.29l0.02-0.1c1.35-6.04,2.75-12.29,3.21-18.62
		c0.09-1.28,0.15-4.53-1.39-6.93c-4.06-6.35-9.86-10.11-17.75-11.5c-0.99-0.17-1.84-0.26-2.58-0.26c-2.46,0-5.1,0.77-6.03,6.49
		c-0.52,3.17-1.01,6.4-1.48,9.52l-0.02,0.13c-0.35,2.3-0.7,4.6-1.06,6.9c-0.93,5.9-1.89,11.84-2.8,17.39
		c-0.05,0.32-0.14,0.65-0.24,1.01c-0.08,0.31-0.18,0.66-0.25,1.02c-0.09,0.45-0.18,0.9-0.27,1.35l-0.02,0.08
		c-0.29,1.42-0.58,2.88-0.76,4.36c-0.21,1.84-0.36,3.7-0.5,5.5l0,0.05c-0.09,1.13-0.18,2.29-0.29,3.44
		c-0.55,5.86,1.65,11.02,6.55,15.34c2.45,2.16,5.37,3.8,9.48,5.32c2.59,0.96,5.23,1.44,7.85,1.44c3.84,0,7.73-1.04,11.56-3.09
		c1.79-0.96,8.52-5.23,13.64-8.66c3.31,4.34,7.82,7.83,13.35,10.26c3.26,1.42,6.43,2.14,9.42,2.14c9.47,0,15.3-7.03,19.15-11.68
		l0.04-0.04c1.04-1.25,1.96-2.34,2.66-2.98c0.2-0.19,0.46-0.29,0.73-0.29c0.09,0,0.17,0.01,0.25,0.03c0.35,0.09,0.64,0.34,0.76,0.68
		c2.99,8.18,10.39,13.06,19.8,13.06c6.72,0,13.29-2.53,18.05-6.93c0.01-0.01,0.12-0.11,0.14-0.13c0.2-0.19,0.42-0.41,0.65-0.63
		c6.29-6.01,12-12.28,11.26-17.42C425.2,310.83,424.64,309.74,423.71,308.81z M362.91,318.57c-28.75,10.12,3.06-77.34,13.11-37.32
		C372.97,293.85,371.75,308.53,362.91,318.57z"/>
	<path class="st2" d="M568,266.08c2.27,0.73,4.27,1.09,6.1,1.09c2.64,0,4.97-0.75,7.12-2.3c2.72-1.96,5.81-4.85,5.51-9.81
		c-0.07-1.17-0.6-2.48-1.17-3.73c-1.87-4.13-4.97-6.32-9.47-6.71l-0.71,0.08c-2.85,0.3-5.11,0.54-7.36,1.65
		c-4.54,2.23-7.19,6.56-6.92,11.29C561.34,261.66,563.85,264.74,568,266.08z"/>
	<path class="st2" d="M303.36,245.18c2.27,0.73,4.27,1.09,6.1,1.09c2.64,0,4.97-0.75,7.12-2.3c2.72-1.96,5.81-4.85,5.51-9.81
		c-0.07-1.17-0.6-2.48-1.17-3.73c-1.87-4.13-4.97-6.32-9.47-6.71l-0.71,0.08c-2.85,0.3-5.11,0.54-7.36,1.65
		c-4.54,2.23-7.19,6.56-6.92,11.29C296.7,240.77,299.21,243.84,303.36,245.18z"/>
	<path class="st2" d="M555.63,225.62c2.03-6.84-3.58-10.95-5.42-12.3l-0.28-0.21c-4.5-3.28-8.52-4.86-11.96-4.7
		c-7.8,0.36-13.76,9.59-18.2,28.23c-3.45,14.47-5.37,31.49-6.77,43.92c-0.28,2.46-0.59,5.51-0.97,9.25
		c-3.15,30.94-4.4,36.48-6.78,38.41l-1.6,1.3c-0.23,0.19-0.47,0.23-0.63,0.24c-0.19,0.01-0.39-0.03-0.56-0.13l-1.85-0.98l-0.41-0.22
		c-0.11-0.06-0.21-0.13-0.29-0.23l-0.2-0.22c-1.96-2.15-5.41-9.97-10.88-24.62c-2.36-6.32-6.11-15.38-10.56-22.71
		c-5.68-9.34-11.17-13.75-16.77-13.49c-2.99,0.14-6.62,0.72-10.92,4c-4.72,3.59-9.69,10.08-14.78,19.3
		c-0.13,0.24-0.23,0.49-0.31,0.74l-0.04,0.12c-0.01,0.05-0.03,0.09-0.05,0.14l-0.05,0.11c-0.27,0.61-0.8,1.72-1.33,2.83
		c-1.27,2.66-1.87,4-2.06,4.96c-0.14,0.69-0.04,1.41,0.26,2.04c0.04,0.09,0.1,0.21,0.19,0.35c0.61,1.06,1.75,1.68,2.97,1.63
		c0.02,0,0.03,0,0.05,0c2.41-0.15,4.67-0.69,7.07-1.26l0.1-0.02c0.6-0.14,1.28-0.3,1.9-0.44l1.12-0.24
		c0.06-0.01,0.12-0.02,0.18-0.02c0.36-0.02,0.7,0.14,0.91,0.43l5.16,6.81l0.15,0.21c6.85,9.93,13.04,19.03,18.02,26.34l0.36,0.52
		c19.83,29.13,30.5,44.57,37.34,49.68c0.61,0.45,1.35,0.68,2.09,0.64c0.14-0.01,0.28-0.02,0.42-0.05c0.88-0.16,1.66-0.68,2.15-1.43
		c1.27-1.97,2.51-4.85,3.79-8.8c2.41-7.46,4.84-18.44,7.92-32.36c5.86-26.52,14.71-66.61,31.47-117.61
		C555.58,225.77,555.63,225.64,555.63,225.62z"/>
</g>
</svg>
