<?xml version="1.0" encoding="utf-8"?>
<!-- Generator: Adobe Illustrator 24.0.3, SVG Export Plug-In . SVG Version: 6.00 Build 0)  -->
<svg version="1.1" id="Capa_1" xmlns="http://www.w3.org/2000/svg" xmlns:xlink="http://www.w3.org/1999/xlink" x="0px" y="0px"
	 viewBox="0 0 841.89 595.28" style="enable-background:new 0 0 841.89 595.28;" xml:space="preserve">
<style type="text/css">
	.st0{fill:#1CB961;}
	.st1{fill:#848484;}
	.st2{fill:#FFFFFF;}
</style>
<rect x="-1" y="0.17" class="st0" width="843" height="595"/>
<g>
	<g>
		<path class="st2" d="M307.88,459.66c-3.87,1.09-7.03,0.63-8.85-1.21c-1.46-1.49-3.02-16.37-4.31-32.68c0-0.07,0-0.15-0.02-0.21
			c-0.12-1.26-0.22-2.65-0.31-4.18c-0.01-0.07-0.01-0.14-0.02-0.2c-0.04-0.64-0.07-1.31-0.1-2.01c-0.16-3.49-0.4-6.73-0.73-9.71
			c-3.32-30.25-20.31-36.44-46.09-1.83c-0.04,0.05-0.08,0.12-0.11,0.18c-1.78,3.44-4.48,2.66-4.48-1.28
			c-5.12-50.99-29.93-10.2-43.24,5.28c-0.83,0.97-2.42,0.39-2.42-0.89c0.05-16.49-15.83-31.13-24.27-12.55
			c-25.12,55.33,15.06,102.19,41.87,27.41c0.51-1.42,3.06-2.67,3.01-1.16c-2.03,64.78,19.49,37.13,42.01-5.37
			c0.58-1.09,2.19-0.92,2.54,0.26c24.27,83.35,21.31,88.88,47.11,42.13C310.08,460.57,309.07,459.33,307.88,459.66z"/>
		<path class="st2" d="M675.69,430v-0.03c-0.99-8.79-4.18-15.61-9.47-20.28c-4.66-4.13-10.76-6.31-17.63-6.31
			c-11.09,0-22.19,5.56-28.98,14.51c-2.02,2.66-3.56,5.53-4.64,8.56c0.87-6.88-0.75-12.75-4.94-17.86c-0.12-0.15-0.26-0.28-0.41-0.4
			c-5.15-4.01-8.95-5.96-11.62-5.96c-2.59,0-4.28,1.68-5.14,5.13c-0.73,2.86-0.89,6.72-1.06,11.18c-0.36,8.69-0.8,19.51-5.93,27.17
			c-4.6,6.79-6.82,8.29-7.74,8.58c-0.09,0.03-0.18,0.04-0.26,0.04c-0.3,0-0.57-0.16-0.74-0.41c-0.64-1.02-1.17-4.04,0.03-12.59
			c0.89-6.39,2.4-13.48,3.41-18.18l0.02-0.09c0.22-1.04,0.41-1.96,0.57-2.7c0.02-0.1,0.04-0.19,0.04-0.29
			c0.29-3.28-0.85-6.38-3.41-9.21c-3.37-3.73-8.65-6.14-13.44-6.14c-0.42,0-0.84,0.02-1.25,0.06c-0.88,0.08-1.65,0.6-2.06,1.38
			c-3.63,6.86-5.23,18.63-5.86,25.04c-0.53,5.35-0.77,10.82-0.74,15.35c-4.45,2.93-10.54,6.92-11.42,7.38
			c-0.42,0.22-0.88,0.34-1.27,0.34c-1.31,0-1.83-1.11-1.89-2.14c-0.04-0.66-0.07-1.41,0.04-2.08c0.16-0.99,0.31-1.98,0.46-2.97
			c0.45-2.97,0.91-6.04,1.55-9.02c0.25-1.15,0.51-2.3,0.76-3.45l0.02-0.08c1.09-4.85,2.2-9.88,2.58-14.97
			c0.08-1.03,0.11-3.63-1.12-5.57c-3.26-5.11-7.93-8.13-14.26-9.24c-0.8-0.14-1.47-0.2-2.08-0.2c-1.98,0-4.1,0.61-4.85,5.21
			c-0.41,2.55-0.81,5.14-1.19,7.65l-0.02,0.1c-0.28,1.85-0.56,3.7-0.85,5.55c-0.75,4.74-1.52,9.52-2.25,13.98
			c-0.04,0.25-0.11,0.52-0.19,0.81c-0.07,0.25-0.15,0.54-0.2,0.83c-0.07,0.36-0.14,0.72-0.22,1.09l-0.01,0.06
			c-0.24,1.14-0.47,2.32-0.61,3.51c-0.17,1.47-0.29,2.98-0.4,4.42v0.03c-0.07,0.9-0.14,1.84-0.23,2.77
			c-0.45,4.71,1.33,8.86,5.26,12.33c1.98,1.74,4.32,3.05,7.63,4.27c2.08,0.77,4.2,1.17,6.31,1.17c3.09,0,6.22-0.84,9.3-2.49
			c1.25-0.67,6.31-4.16,10.73-7.29c2.46,7.11,7.94,11.24,15.31,11.24h0.01c4.76,0,9.97-1.7,15.07-4.93l0.04-0.03
			c6-3.35,12.36-8.85,17.45-15.08c4.42-5.41,7.63-11.01,9.49-16.44c-0.51,4.31-0.15,8.81,1.12,13.33l0.01,0.04
			c1.9,7.13,5.39,12.63,10.38,16.37c4.45,3.33,9.98,5.08,16.01,5.08h0.01c9.96,0,20.37-4.85,27.15-12.63
			C674.26,448.36,676.98,439.3,675.69,430z M651.95,442.03c-19.92,48.59-23.9-32.17-0.54-27.25
			C656.75,422.43,654.21,433.64,651.95,442.03z"/>
		<path class="st2" d="M420.85,430.89c-0.14-0.99-0.6-1.88-1.33-2.62c-0.49-0.49-1.16-0.76-1.85-0.76c-0.69,0-1.36,0.28-1.85,0.77
			c-5.72,5.77-9.79,8.69-12.06,8.69c-0.54,0-0.95-0.18-1.28-0.57c-2.05-2.45-0.75-10.94,1.33-22.67l0.07-0.41
			c0-0.03,0.01-0.05,0.02-0.08c2.62-9.74,4.41-17.5,1.47-21.33c-0.71-0.93-2.09-2.04-4.61-2.04c-2.2,0-4.94,0.79-8.38,2.43
			c-0.11,0.05-0.24,0.08-0.37,0.08c-0.18,0-0.34-0.05-0.49-0.15c-5.81-3.91-11.86-5.89-17.96-5.89c-7.97,0-15.92,3.53-22.41,9.92
			c-5.96,5.87-10.36,13.9-12.06,22.01c-1.02,4.86-1.05,9.57-0.12,13.85c-3.68,2.2-7.89,4.59-8.7,5.02
			c-0.42,0.22-0.87,0.34-1.26,0.34c-1.31,0-1.84-1.11-1.9-2.14c-0.04-0.65-0.07-1.41,0.04-2.08c0.16-0.98,0.31-1.98,0.46-2.97
			c0.45-2.97,0.92-6.04,1.55-9.02c0.25-1.15,0.51-2.3,0.76-3.45l0.02-0.07c1.09-4.86,2.21-9.88,2.58-14.98
			c0.08-1.03,0.11-3.63-1.11-5.57c-3.27-5.1-7.94-8.13-14.27-9.23c-0.8-0.14-1.47-0.21-2.08-0.21c-1.98,0-4.1,0.62-4.85,5.21
			c-0.41,2.55-0.81,5.14-1.19,7.65l-0.02,0.1c-0.28,1.85-0.56,3.7-0.85,5.55c-0.75,4.75-1.52,9.52-2.25,13.98
			c-0.04,0.25-0.11,0.53-0.19,0.81c-0.07,0.25-0.15,0.54-0.2,0.83c-0.07,0.36-0.14,0.73-0.22,1.09l-0.01,0.07
			c-0.24,1.13-0.47,2.31-0.61,3.5c-0.18,1.48-0.29,2.98-0.4,4.42l-0.01,0.04c-0.07,0.91-0.14,1.84-0.23,2.77
			c-0.45,4.71,1.33,8.86,5.27,12.33c1.97,1.73,4.31,3.05,7.62,4.28c2.08,0.76,4.2,1.16,6.31,1.16c3.09,0,6.22-0.83,9.3-2.48
			c1.44-0.77,6.85-4.21,10.96-6.97c2.66,3.49,6.29,6.29,10.74,8.24c2.62,1.14,5.17,1.72,7.58,1.72c7.61,0,12.29-5.65,15.39-9.39
			l0.04-0.04c0.83-1,1.57-1.88,2.13-2.4c0.16-0.15,0.37-0.23,0.59-0.23c0.07,0,0.14,0.01,0.2,0.02c0.29,0.07,0.52,0.28,0.61,0.55
			c2.41,6.57,8.36,10.5,15.92,10.5c5.4,0,10.68-2.03,14.5-5.57c0.01-0.01,0.1-0.1,0.12-0.11c0.16-0.15,0.33-0.32,0.52-0.5
			C416.85,440.06,421.44,435.02,420.85,430.89z M370.63,436.11c-23.11,8.14,2.47-62.17,10.54-30
			C378.71,416.24,377.73,428.04,370.63,436.11z"/>
		<path class="st2" d="M535.51,393.91c1.83,0.59,3.43,0.88,4.9,0.88c2.12,0,4-0.61,5.72-1.85c2.19-1.58,4.67-3.9,4.43-7.89
			c-0.06-0.94-0.48-1.99-0.94-3c-1.5-3.32-4-5.08-7.61-5.39l-0.57,0.06c-2.29,0.24-4.11,0.43-5.92,1.33
			c-3.65,1.8-5.78,5.28-5.56,9.08C530.15,390.36,532.17,392.83,535.51,393.91z"/>
		<path class="st2" d="M322.75,377.11c1.83,0.59,3.43,0.88,4.9,0.88c2.12,0,4-0.61,5.72-1.85c2.19-1.58,4.67-3.9,4.43-7.89
			c-0.06-0.94-0.48-1.99-0.94-3c-1.5-3.32-4-5.08-7.61-5.39l-0.57,0.06c-2.29,0.24-4.11,0.43-5.92,1.33
			c-3.65,1.8-5.78,5.28-5.56,9.08C317.4,373.56,319.42,376.03,322.75,377.11z"/>
		<path class="st2" d="M525.57,361.39c1.63-5.5-2.88-8.8-4.35-9.89l-0.23-0.17c-3.62-2.64-6.85-3.91-9.62-3.78
			c-6.27,0.29-11.06,7.71-14.63,22.69c-2.77,11.63-4.32,25.31-5.44,35.31c-0.22,1.97-0.47,4.43-0.78,7.43
			c-2.53,24.87-3.54,29.33-5.45,30.88l-1.29,1.04c-0.18,0.15-0.38,0.19-0.51,0.19c-0.16,0.01-0.31-0.03-0.45-0.1l-1.49-0.79
			l-0.33-0.18c-0.09-0.05-0.16-0.11-0.23-0.18l-0.16-0.18c-1.57-1.73-4.35-8.02-8.74-19.79c-1.9-5.08-4.91-12.37-8.49-18.26
			c-4.57-7.51-8.98-11.05-13.49-10.84c-2.4,0.11-5.32,0.58-8.78,3.21c-3.79,2.89-7.79,8.11-11.89,15.52
			c-0.1,0.19-0.19,0.39-0.25,0.59l-0.03,0.1c-0.01,0.04-0.02,0.07-0.04,0.11l-0.04,0.09c-0.22,0.49-0.64,1.38-1.07,2.28
			c-1.02,2.13-1.5,3.22-1.65,3.99c-0.11,0.55-0.04,1.13,0.21,1.64c0.03,0.07,0.08,0.17,0.15,0.28c0.49,0.85,1.41,1.35,2.38,1.31
			c0.01,0,0.03,0,0.04,0c1.93-0.12,3.76-0.55,5.69-1.01l0.08-0.02c0.48-0.11,1.03-0.24,1.53-0.35l0.9-0.19
			c0.05-0.01,0.09-0.02,0.14-0.02c0.29-0.01,0.56,0.12,0.73,0.34l4.15,5.47l0.12,0.17c5.51,7.99,10.49,15.3,14.49,21.18l0.29,0.42
			c15.94,23.42,24.52,35.83,30.02,39.94c0.49,0.36,1.08,0.54,1.68,0.52c0.11-0.01,0.23-0.02,0.34-0.04
			c0.71-0.13,1.34-0.54,1.73-1.15c1.02-1.58,2.02-3.9,3.05-7.07c1.94-6,3.89-14.82,6.36-26.02c4.71-21.32,11.82-53.55,25.3-94.55
			C525.53,361.51,525.56,361.4,525.57,361.39z"/>
	</g>
	<path class="st2" d="M531.72,173.99c-3.1-14.92-9.27-29.59-22.19-43.75c-28.31-25.83-58.67-24.69-89.03-25.91
		c-15.18,0.61-30.36,0.63-45.28,3.73c-14.92,3.1-29.58,9.27-43.74,22.18c-25.84,28.31-24.7,58.67-25.91,89.03
		c1.21,30.36,0.09,60.72,25.91,89.03c28.31,25.83,58.67,24.69,89.03,25.91c15.18-0.61,30.36-0.63,45.28-3.73
		c14.92-3.1,29.59-9.27,43.74-22.18c25.83-28.31,24.7-58.68,25.91-89.03C534.84,204.09,534.82,188.91,531.72,173.99z M507.31,165.83
		c-48.6,133.92-20.25,162.8-83.41,56.74c-11.23,49.37-32.18,83.58-40.46,9.18c-18.08,85.46-65.07,42.66-45.15-15.43
		c6.98-20.35,25.97-4.02,24.93,13.65c11.77-13.14,28.18-64.11,42.39-12.26c0.64,3.85,3.42,4.13,4.56,0.41
		c21.19-41.47,34.44-37.39,45.63-0.8c18.85,61.55,7.92-92.96,45.23-61.55C504.48,158.69,508.57,162.05,507.31,165.83z"/>
</g>
</svg>
