<?xml version="1.0" encoding="utf-8"?>
<!-- Generator: Adobe Illustrator 24.0.3, SVG Export Plug-In . SVG Version: 6.00 Build 0)  -->
<svg version="1.1" id="Capa_1" xmlns="http://www.w3.org/2000/svg" xmlns:xlink="http://www.w3.org/1999/xlink" x="0px" y="0px"
	 viewBox="0 0 841.89 595.28" style="enable-background:new 0 0 841.89 595.28;" xml:space="preserve">
<style type="text/css">
	.st0{fill:#1CB961;}
	.st1{fill:#848484;}
	.st2{fill:#FFFFFF;}
</style>
<path class="st1" d="M559.51,241.18c-3.86-18.56-11.54-36.81-27.61-54.42c-35.21-32.13-72.97-30.72-110.74-32.24
	c-18.88,0.76-37.76,0.79-56.32,4.64c-18.56,3.86-36.8,11.54-54.41,27.6c-32.14,35.21-30.73,72.97-32.24,110.74
	c1.51,37.76,0.11,75.53,32.24,110.74c35.21,32.13,72.97,30.72,110.74,32.24c18.88-0.76,37.76-0.79,56.32-4.64
	c18.56-3.86,36.81-11.54,54.41-27.6c32.14-35.21,30.73-72.98,32.24-110.74C563.38,278.62,563.36,259.74,559.51,241.18z
	 M529.14,231.02c-60.45,166.58-25.19,202.5-103.76,70.59c-13.96,61.41-40.02,103.96-50.32,11.42
	c-22.49,106.3-80.93,53.06-56.16-19.2c8.68-25.31,32.3-5,31.01,16.98c14.64-16.34,35.05-79.74,52.73-15.25
	c0.8,4.79,4.26,5.14,5.68,0.51c26.36-51.58,42.83-46.5,56.76-0.99c23.44,76.56,9.85-115.63,56.25-76.56
	C525.62,222.15,530.71,226.33,529.14,231.02z"/>
</svg>
