<?xml version="1.0" encoding="utf-8"?>
<!-- Generator: Adobe Illustrator 24.0.3, SVG Export Plug-In . SVG Version: 6.00 Build 0)  -->
<svg version="1.1" id="Capa_1" xmlns="http://www.w3.org/2000/svg" xmlns:xlink="http://www.w3.org/1999/xlink" x="0px" y="0px"
	 viewBox="0 0 841.89 595.28" style="enable-background:new 0 0 841.89 595.28;" xml:space="preserve">
<style type="text/css">
	.st0{fill:#1CB961;}
	.st1{fill:#848484;}
	.st2{fill:#FFFFFF;}
</style>
<rect x="-1" y="1.45" class="st0" width="843" height="595"/>
<g>
	<path class="st2" d="M712.84,325.94c2.81-10.44,5.97-24.39-0.67-33.89C683.1,285.91,688.06,386.37,712.84,325.94z"/>
	<path class="st2" d="M362.91,318.57c8.83-10.05,10.05-24.73,13.11-37.32C365.98,241.24,334.16,328.7,362.91,318.57z"/>
	<path class="st2" d="M766.27,217.22c-25.57-23.33-52.99-22.31-80.41-23.41c-3.25,0.13-6.5,0.23-9.75,0.35H175.34v0.06
		c-3.77-0.14-7.54-0.25-11.31-0.4c-27.42,1.1-54.85,0.08-80.41,23.41c-23.33,25.57-22.31,52.99-23.41,80.41
		c1.1,27.42,0.08,54.85,23.41,80.41c25.57,23.34,52.99,22.31,80.41,23.41c3.77-0.15,7.54-0.26,11.31-0.4v0.06h500.77
		c3.25,0.11,6.5,0.22,9.75,0.35c27.42-1.1,54.85-0.07,80.41-23.41c23.34-25.57,22.31-52.99,23.41-80.41
		C788.58,270.22,789.61,242.79,766.27,217.22z M568.02,246.35c2.26-1.11,4.51-1.35,7.36-1.65l0.71-0.08c4.5,0.39,7.6,2.58,9.47,6.71
		c0.56,1.25,1.1,2.56,1.17,3.73c0.3,4.96-2.79,7.85-5.51,9.81c-2.15,1.55-4.48,2.3-7.12,2.3c-1.83,0-3.83-0.36-6.1-1.09
		c-4.15-1.34-6.66-4.41-6.89-8.44C560.83,252.91,563.48,248.58,568.02,246.35z M303.38,225.45c2.26-1.11,4.51-1.35,7.36-1.65
		l0.71-0.08c4.5,0.39,7.6,2.58,9.47,6.71c0.56,1.25,1.1,2.56,1.17,3.73c0.3,4.96-2.79,7.85-5.51,9.81c-2.15,1.55-4.48,2.3-7.12,2.3
		c-1.83,0-3.83-0.36-6.1-1.09c-4.15-1.34-6.66-4.41-6.89-8.44C296.19,232.01,298.84,227.68,303.38,225.45z M286.85,350.33
		c-32.09,58.15-28.42,51.27-58.6-52.41c-0.43-1.47-2.44-1.68-3.15-0.33c-28.01,52.86-54.78,87.25-52.25,6.68
		c0.06-1.88-3.11-0.33-3.75,1.44c-33.35,93.02-83.34,34.72-52.08-34.1c10.5-23.11,30.25-4.9,30.18,15.61
		c-0.01,1.59,1.97,2.31,3.01,1.11c16.56-19.25,47.42-69.99,53.79-6.57c-0.01,4.91,3.35,5.88,5.57,1.6c0.04-0.08,0.09-0.15,0.14-0.22
		c32.07-43.05,53.2-35.35,57.33,2.28c0.42,3.7,0.71,7.74,0.91,12.08c0.04,0.86,0.08,1.7,0.12,2.5c0.01,0.08,0.01,0.16,0.02,0.25
		c0.11,1.9,0.23,3.63,0.39,5.2c0.02,0.08,0.03,0.18,0.03,0.26c1.6,20.28,3.54,38.8,5.36,40.65c2.26,2.29,6.19,2.86,11.01,1.5
		C286.34,347.44,287.59,348.99,286.85,350.33z M414.11,329.49c-0.23,0.22-0.45,0.43-0.65,0.63c-0.03,0.02-0.13,0.12-0.14,0.13
		c-4.75,4.4-11.33,6.93-18.05,6.93c-9.41,0-16.81-4.88-19.8-13.06c-0.13-0.34-0.41-0.6-0.76-0.68c-0.08-0.02-0.17-0.03-0.25-0.03
		c-0.27,0-0.53,0.1-0.73,0.29c-0.7,0.64-1.62,1.73-2.66,2.98l-0.04,0.04c-3.85,4.65-9.68,11.68-19.15,11.68
		c-2.99,0-6.16-0.72-9.42-2.14c-5.53-2.43-10.04-5.91-13.35-10.26c-5.12,3.43-11.84,7.7-13.64,8.66c-3.83,2.05-7.72,3.09-11.56,3.09
		c-2.62,0-5.26-0.49-7.85-1.44c-4.11-1.52-7.03-3.16-9.48-5.32c-4.9-4.32-7.1-9.48-6.55-15.34c0.11-1.15,0.2-2.31,0.29-3.44l0-0.05
		c0.14-1.8,0.29-3.66,0.5-5.5c0.17-1.48,0.47-2.94,0.76-4.36l0.02-0.08c0.09-0.45,0.18-0.9,0.27-1.35c0.07-0.36,0.17-0.71,0.25-1.02
		c0.1-0.36,0.19-0.69,0.24-1.01c0.9-5.55,1.87-11.49,2.8-17.39c0.36-2.3,0.71-4.6,1.06-6.9l0.02-0.13c0.47-3.12,0.96-6.35,1.48-9.52
		c0.93-5.72,3.57-6.49,6.03-6.49c0.75,0,1.59,0.08,2.58,0.26c7.89,1.38,13.69,5.14,17.75,11.5c1.54,2.41,1.49,5.65,1.39,6.93
		c-0.46,6.33-1.86,12.58-3.21,18.62l-0.02,0.1c-0.32,1.43-0.64,2.86-0.95,4.29c-0.8,3.7-1.38,7.52-1.94,11.22
		c-0.19,1.23-0.37,2.46-0.57,3.69c-0.13,0.83-0.09,1.77-0.05,2.59c0.07,1.29,0.73,2.67,2.36,2.67c0.49,0,1.05-0.15,1.57-0.43
		c1.01-0.53,6.25-3.5,10.82-6.24c-1.15-5.33-1.12-11.18,0.16-17.23c2.12-10.09,7.58-20.07,15-27.38
		c8.06-7.95,17.96-12.33,27.87-12.33c7.59,0,15.11,2.46,22.35,7.33c0.18,0.12,0.39,0.18,0.6,0.18c0.16,0,0.32-0.04,0.47-0.1
		c4.27-2.04,7.68-3.03,10.43-3.03c3.13,0,4.85,1.38,5.73,2.54c3.66,4.77,1.44,14.42-1.83,26.54c-0.01,0.03-0.01,0.06-0.02,0.09
		l-0.09,0.52c-2.57,14.59-4.19,25.15-1.64,28.2c0.41,0.49,0.91,0.71,1.59,0.71c2.83,0,7.88-3.64,15.01-10.82
		c0.61-0.61,1.44-0.96,2.3-0.96h0c0.86,0,1.69,0.34,2.3,0.95c0.92,0.93,1.48,2.02,1.66,3.26
		C426.11,317.21,420.4,323.48,414.11,329.49z M516.19,375.76c-1.28,3.95-2.52,6.83-3.79,8.8c-0.49,0.75-1.27,1.27-2.15,1.43
		c-0.14,0.03-0.28,0.04-0.42,0.05c-0.75,0.03-1.49-0.19-2.09-0.64c-6.85-5.11-17.51-20.55-37.34-49.68l-0.36-0.52
		c-4.98-7.31-11.17-16.4-18.02-26.34l-0.15-0.21l-5.16-6.81c-0.22-0.28-0.56-0.44-0.91-0.43c-0.06,0-0.12,0.01-0.18,0.02l-1.12,0.24
		c-0.62,0.13-1.3,0.29-1.9,0.44l-0.1,0.02c-2.4,0.57-4.67,1.11-7.07,1.26c-0.02,0-0.03,0-0.05,0c-1.21,0.06-2.36-0.57-2.97-1.63
		c-0.08-0.15-0.14-0.26-0.19-0.35c-0.31-0.63-0.4-1.35-0.26-2.04c0.19-0.96,0.79-2.31,2.06-4.96c0.53-1.11,1.06-2.22,1.33-2.83
		l0.05-0.11c0.02-0.05,0.04-0.09,0.05-0.14l0.04-0.12c0.07-0.25,0.18-0.5,0.31-0.74c5.1-9.22,10.07-15.71,14.78-19.3
		c4.3-3.27,7.93-3.86,10.92-4c5.6-0.26,11.09,4.15,16.77,13.49c4.46,7.32,8.21,16.39,10.56,22.71c5.46,14.64,8.92,22.46,10.88,24.62
		l0.2,0.22c0.08,0.09,0.18,0.17,0.29,0.23l0.41,0.22l1.85,0.98c0.17,0.09,0.36,0.13,0.56,0.13c0.16-0.01,0.4-0.06,0.63-0.24l1.6-1.3
		c2.38-1.92,3.63-7.47,6.78-38.41c0.38-3.74,0.69-6.79,0.97-9.25c1.4-12.43,3.32-29.45,6.77-43.92c4.44-18.63,10.4-27.86,18.2-28.23
		c3.44-0.16,7.46,1.42,11.96,4.7l0.28,0.21c1.84,1.35,7.44,5.45,5.42,12.3c-0.01,0.02-0.05,0.16-0.05,0.17
		c-16.76,51-25.61,91.09-31.47,117.61C521.03,357.32,518.61,368.3,516.19,375.76z M732.84,342.71
		c-8.44,9.69-21.38,15.71-33.77,15.71h-0.01c-7.5,0-14.39-2.19-19.92-6.33c-6.21-4.64-10.55-11.5-12.91-20.37l-0.01-0.05
		c-1.58-5.63-2.03-11.22-1.4-16.59c-2.31,6.77-6.31,13.73-11.8,20.45c-6.33,7.76-14.25,14.59-21.71,18.76l-0.05,0.03
		c-6.34,4.02-12.83,6.15-18.75,6.15h0c-9.17,0-15.99-5.13-19.05-13.98c-5.49,3.88-11.79,8.23-13.35,9.06
		c-3.83,2.05-7.72,3.09-11.56,3.09c-2.62,0-5.26-0.49-7.85-1.44c-4.11-1.52-7.03-3.16-9.48-5.32c-4.9-4.32-7.1-9.48-6.55-15.34
		c0.11-1.15,0.2-2.31,0.29-3.44l0-0.05c0.14-1.8,0.29-3.66,0.5-5.5c0.17-1.48,0.47-2.94,0.76-4.36l0.02-0.08
		c0.09-0.45,0.18-0.9,0.27-1.35c0.07-0.36,0.17-0.71,0.25-1.02c0.1-0.36,0.19-0.69,0.24-1.01c0.9-5.55,1.87-11.49,2.8-17.39
		c0.36-2.3,0.71-4.6,1.06-6.9l0.02-0.13c0.47-3.12,0.96-6.35,1.48-9.52c0.93-5.72,3.57-6.49,6.03-6.49c0.75,0,1.59,0.08,2.58,0.26
		c7.89,1.38,13.69,5.14,17.75,11.5c1.54,2.41,1.49,5.65,1.39,6.93c-0.46,6.33-1.86,12.58-3.21,18.62l-0.02,0.1
		c-0.32,1.43-0.64,2.86-0.95,4.29c-0.8,3.7-1.38,7.52-1.94,11.22c-0.19,1.23-0.37,2.46-0.57,3.69c-0.13,0.83-0.09,1.77-0.05,2.59
		c0.07,1.29,0.73,2.67,2.36,2.67c0.49,0,1.05-0.15,1.57-0.43c1.1-0.58,8.68-5.53,14.21-9.18c-0.05-5.65,0.26-12.44,0.92-19.1
		c0.78-7.97,2.77-22.61,7.29-31.14c0.51-0.97,1.48-1.61,2.57-1.71c0.5-0.05,1.02-0.07,1.54-0.07c5.96,0,12.53,3,16.72,7.63
		c3.18,3.52,4.61,7.37,4.24,11.46c-0.01,0.12-0.03,0.24-0.05,0.36c-0.19,0.92-0.43,2.06-0.71,3.36l-0.02,0.11
		c-1.25,5.84-3.13,14.67-4.24,22.61c-1.48,10.64-0.83,14.39-0.03,15.66c0.2,0.32,0.54,0.51,0.92,0.51c0.11,0,0.22-0.02,0.33-0.05
		c1.14-0.36,3.91-2.23,9.63-10.67c6.38-9.52,6.92-22.98,7.37-33.79c0.23-5.56,0.42-10.35,1.32-13.92c1.08-4.29,3.18-6.38,6.4-6.38
		c3.32,0,8.05,2.43,14.46,7.42c0.19,0.15,0.36,0.32,0.52,0.5c5.21,6.36,7.23,13.64,6.14,22.21c1.34-3.76,3.27-7.34,5.78-10.65
		c8.44-11.13,22.26-18.05,36.05-18.05c8.54,0,16.12,2.71,21.92,7.85c6.58,5.82,10.54,14.3,11.78,25.23l0,0.03
		C743.97,322.53,740.58,333.81,732.84,342.71z"/>
</g>
</svg>
